<svg xmlns="http://www.w3.org/2000/svg" width="240" height="324" fill="none" id="cool-guy"><path fill="#fff" fill-rule="evenodd" d="M49.162 285.363c1.114 1.694 3.305 1.433 4.246.122 10.713 2.497 21.695 1.513 32.556.901 30.607-1.246 61.387 2.659 91.87-1.426 3.234-.647 6.997-.338 9.643-2.582 4.232-4.961 3.321-12.493 2.647-18.536-5.404-34.062-13.086-68.436-16.918-102.717-.214-3.266 1.131-7.323 2.337-10.392.298-.572 2.18-1.131 3.157-1.79 2.998-2.153 2.512-6.011-.087-8.275-8.415-5.933-20.129-3.86-29.056-1.671-1.711-6.427-3.634-10.655-6.891-11.074-6.199-.796-21.238-3.232-25.871 0-2.216 1.547-3.638 6.995-5.233 9.649-11.634-.207-35.246-15.778-40.1 1.756-3.944.272-7.85 3.717-7.096 7.851-5.115 4.521-1.08 11.301-1.152 16.929-.672 11.941-7.13 22.62-9.818 34.155-6.142 22.373-13.094 63.068-5.476 84.906-.164-.086-.522.043-.29.225.862.243.975 1.33 1.532 1.969Z" clip-rule="evenodd"></path><path fill="#000" fill-rule="evenodd" d="M182.916 279.674c-1.429-11.475-2.423-25.327-2.434-36.898-.001-1.09 1.689-1.088 1.69 0 .012 11.571 1.005 25.423 2.434 36.898.134 1.079-1.557 1.066-1.69 0m-10.584-71.15c-2.208 1.351-5.107.414-7.292-.481-.995-.407-.557-2.042.449-1.63 1.663.681 4.093 1.683 5.848.734 1.752-.948 1.831-3.555 1.844-5.275.008-1.089 1.698-1.088 1.69 0-.018 2.34-.331 5.3-2.539 6.652m-4.087 52.512a16.685 16.685 0 0 1-5.657-4.686c-.665-.862.804-1.703 1.459-.853 1.346 1.744 3.1 3.078 5.051 4.079.969.497.113 1.955-.853 1.46m-10.706-59.01a287.17 287.17 0 0 0-7.644 46.658 199.803 199.803 0 0 0-.537 9.581 205.73 205.73 0 0 0-.289 2.502c-.344 3.157-.608 6.366-.585 9.544.01 1.427.055 2.847.152 4.27a49.881 49.881 0 0 1-.478-1.429c-.31-.974-.515-1.985-.832-2.953-.262-.801-.6-1.568-.915-2.343v-.003c.095-3.176-.12-6.382-.23-9.544-.142-4.096-.317-8.188-.408-12.286-.181-8.196-.091-16.399.205-24.59.594-16.507 2.094-32.935 3.607-49.374.42-4.572.872-9.141 1.185-13.721.315-4.628.441-9.266.477-13.907.002-.334-.505-.422-.598-.099a22.018 22.018 0 0 0-.471-3.263c3.645 2.325 7.488 4.334 11.254 6.448 1.984 1.114 3.96 2.247 6.005 3.244a58.702 58.702 0 0 0 3.416 1.532c1.2.495 2.347 1.176 3.667.831a1.5 1.5 0 0 0 .326-.127c-.15.285-.3.569-.444.856a91.957 91.957 0 0 0-1.434 2.991 1.082 1.082 0 0 0-.315.378c-.224.438-.442.879-.653 1.327l-.127-.12c-.177-.167-.422.084-.266.266.072.082.142.163.211.245-1.377 2.966-2.497 6.083-3.65 9.127a295.82 295.82 0 0 0-4.027 11.303 302.164 302.164 0 0 0-6.602 22.656m-54.64 55.601c-7.044 3.774-13.626 8.284-19.957 13.148-.863.663-1.704-.807-.853-1.46 6.33-4.864 12.913-9.374 19.957-13.148.959-.514 1.812.946.853 1.46M79.108 213.43c-.366-.027-.722-.239-.815-.62-.57-2.337-1.018-4.883-.487-7.267.237-1.063 1.866-.611 1.63.449-.419 1.88-.086 3.912.348 5.786 6.144.269 12.205-1.936 18.083-3.417 1.057-.266 1.503 1.365.449 1.63-6.235 1.571-12.684 3.922-19.208 3.439m122.303 62.341a.434.434 0 0 0 .016-.047c.362-1.095.37-2.367.41-3.514a49.277 49.277 0 0 0-.188-6.123c-.388-4.284-1.225-8.499-2.224-12.677-1.98-8.277-4.777-16.329-6.296-24.718-2.981-16.466-2.273-33.611-8.123-49.493-2.432-6.603-5.905-12.95-10.625-18.196.344-1.048.68-2.098 1.008-3.153.572-1.835 1.157-3.728 1.51-5.618.009-.051.019-.103.026-.156 2.009-.867 3.836-2.5 4.149-4.673.135-.939-.021-1.978-.427-2.885.828-.765 1.361-1.759 1.234-3.09-.237-2.507-3.163-3.151-5.199-3.642a20.68 20.68 0 0 0-7.086-.448 21.322 21.322 0 0 0-3.535.681c-1.003.285-2.095.579-2.9 1.268-.095.08-.017.237.097.237 1.629-.006 3.251-.605 4.897-.683a20.35 20.35 0 0 1 5.134.416c1.652.347 3.3.854 4.802 1.638.422.222 1.041.372.545.82-.363.328-1.078.356-1.544.404-1.034.108-1.925.712-2.056 1.816-.116.974.465 2.077 1.5 2.297.057.013.11.027.156.046.028.053.07.098.066.026 0 0 .002-.002.002 0 .025.154.034.215.034.226-.007-.013-.017-.066-.026-.108l.036.19c-.023-.099-.004.144-.023.182-.549 1.015-2.174 1.3-3.12 1.737a2.168 2.168 0 0 0-.478.296c-.224-.078-.452-.156-.682-.243a97.013 97.013 0 0 0-3.416-1.219c-2.219-.742-4.465-1.404-6.683-2.148-4.2-1.407-8.26-3.185-12.382-4.795a13.943 13.943 0 0 0-.463-1.425c-.036-.097-.209-.128-.228 0-.064.41-.114.823-.156 1.237a.191.191 0 0 0-.013.12c-.239 2.41-.175 4.876-.298 7.283-.152 3.002-.577 5.982-.697 8.985v.055a249.46 249.46 0 0 0-1.209 7.716c-.407-.127-.874-.101-1.352.155-3.376 1.802-7.17 2.806-10.988 3.03a32.937 32.937 0 0 1-5.738-.173c-1.257-.144-2.495-.406-3.735-.655a164.059 164.059 0 0 1 2.146-8.158c.653-2.217 1.38-4.424 2.278-6.556.906-2.154 2.034-4.21 3.084-6.299.484-.965-.086-2.443-1.343-2.341-.372.029-.744.052-1.118.069-3.638.174-7.422-.232-11.013-.594-4.088-.414-8.231-.843-12.283-1.517-.3-.049-.423.359-.127.459 1.922.646 3.822 1.377 5.793 1.862 2.028.501 4.069.957 6.127 1.314 1.971.341 3.95.626 5.936.867 1.295.158 2.605.239 3.909.344-1.756 2.807-2.966 5.973-4.021 9.09-1.354 4.003-2.349 8.123-3.323 12.233a326.412 326.412 0 0 0-5.144 26.666 331.381 331.381 0 0 0-2.328 19.331 177.47 177.47 0 0 0-.624-5.876 165.794 165.794 0 0 0-3.524-19.29 1.27 1.27 0 0 0 .159-.824c-.281-1.746-1.021-3.266-1.669-4.884a153.385 153.385 0 0 0-2.088-6.738c-.849-3.037-1.802-6.028-3.021-8.949a62.286 62.286 0 0 0-3.177-6.497 91.518 91.518 0 0 0-4.671-8.566 1.784 1.784 0 0 0-.438-.695c-.31-.491-.625-.975-.946-1.454-.21-.313-.81-.123-.65.274.073.187.147.372.223.557-6.944-1.738-13.753.919-20.368 2.88-1.67.497-3.355.945-5.066 1.268-1.346.254-2.914.562-4.255.283-.898-.186-1.295-.594-.858-1.553.452-.993 1.686-1.647 2.757-2.086.403-.087.8-.241 1.183-.474.892-.541 1.282-1.669.862-2.631-.382-.869-1.498-1.617-2.484-1.219l-.42.167a.402.402 0 0 1-.047-.093c-.142-.387-.203.076-.142-.478.102-.905 1.059-1.727 1.713-2.245 1.63-1.291 3.983-2.246 6.085-1.758.159.036.317.08.473.135 2.166.751 3.22-2.369 1.49-3.531-.106-.07-.24-.159-.385-.262-.72-.501-1.775-1.345-1.487-2.105.355-.945 2.448-1.488 3.24-1.81a27.377 27.377 0 0 1 9.05-1.957 29.676 29.676 0 0 1 9.253 1.046c1.47.41 2.98 1.034 4.37 1.664 1.25.564 3.966 1.31 4.14 2.891.038.349.534.467.642.087.851-3.035-2.453-4.995-4.633-6.248-1.43-.824-3.053-1.338-4.623-1.843a26.916 26.916 0 0 0-4.608-1.059c-3.365-.46-6.77-.401-10.109.245-3.04.59-6.422 1.596-8.88 3.553-1.508 1.201-2.19 3.111-1.584 4.975l.064.186c-2.715.487-5.284 2.042-7.002 4.211-1.411 1.781-2.15 4.26-.887 6.334a2.908 2.908 0 0 0-.156.12c-1.205.964-2.1 2.363-2.367 3.893-.521 3.018 1.302 5.13 3.852 5.937a43.336 43.336 0 0 0-1.832 1.928 45.101 45.101 0 0 0-3.718 4.7c-2.27 3.306-4.209 6.905-5.905 10.532-3.488 7.448-5.687 15.464-6.854 23.593-.587 4.096-.98 8.213-1.13 12.347-.173 4.713.002 9.428-.089 14.143-.088 4.532-.59 8.953-1.601 13.371-.97 4.224-2.263 8.365-3.433 12.534-1.32 4.697-2.774 9.372-3.471 14.214-.353 2.464-.607 4.935-.41 7.427.199 2.538 1.12 4.709 1.969 7.069.215.603.872.846 1.399.717.118 1.131.544 2.234 1.18 3.189 1.35 2.025 3.43 3.316 5.81 3.785 2.683.527 5.449.402 8.166.305 2.947-.106 5.896-.201 8.844-.324 3.085-.127 6.17-.258 9.256-.39a845.31 845.31 0 0 0-.361-9.488c-.744-17.095-1.916-34.2-1.947-51.318a.878.878 0 0 1-.174-.131c-1.39-1.343-3.095-2.225-4.697-3.276-.907-.595-.06-2.059.853-1.46 1.35.886 2.758 1.674 4.024 2.667.008-1.782.023-3.564.059-5.346.021-1.088 1.711-1.088 1.69 0-.106 5.371-.07 10.743.05 16.113.394 17.402 1.63 34.772 2.193 52.167 8.281-.354 16.563-.711 24.846-1.013l20.212-.735c1.414-.051 2.208-1.062 2.381-2.383a10.357 10.357 0 0 0-1.626-6.987 2.83 2.83 0 0 0-.488-.56c.031-1.456.09-2.914.008-4.37-.122-2.224-.306-4.447-.467-6.668-.325-4.449-.577-8.907-.676-13.366a337.141 337.141 0 0 1 .45-26.753c1.012-17.794 3.368-35.473 7.223-52.878.281-1.268.564-2.536.858-3.802 2.998 1.558 6.644 2.118 9.921 2.139 4.107.025 8.123-.92 11.833-2.637l-.074.574a751.405 751.405 0 0 0-2.668 24.773c-1.517 16.487-2.446 33.042-2.318 49.603.036 4.589.212 9.163.429 13.745.222 4.66.562 9.584 1.859 14.08.144.496.463.782.831.885.019.655.061 1.313.107 1.96.15 2.102.579 6.471 1.496 8.377.894 1.86 2.383 3.336 4.283 4.147 2.412 1.029 5.021.734 7.569.569 11.079-.723 22.15-1.691 33.222-2.541 1.542-.118 3.085-.234 4.625-.355 1.371-.106 2.789-.199 4.006-.911 1.383-.809 2.463-4.785 1.985-6.429a3.216 3.216 0 0 0-.39-.862" clip-rule="evenodd"></path><path fill="#fff" fill-rule="evenodd" d="M169.522 68.445c-.071-2.528-3.745-3.577-4.807-1.074a3.168 3.168 0 0 1-.205.19c.333-.286-.362.186-.475.244-.097.05-.196.095-.295.141-.682-6.402-3-13.304-8.99-16.518-8.355-4.053-18.008-4.844-27.173-4.442-4.643.276-10.005 1.019-14.13-1.331-1.285-.732-2.316-1.885-3.768-2.337-4.585-1.241-6.665 3.47-6.041 7.343-1.955.015-3.895 1.098-4.74 2.881-.495 1.056-.486 2.195-.914 3.254-1.311 2.687-3.187 4.617-2.126 7.874-1.866 2.124-.803 5.34.703 7.373.743 1.057 1.629 2.073 2.173 3.256.53 1.134-.269 2.478-.713 3.553-3.283 7.788-3.095 16.364-1.329 24.488-3.545 1.539-4.609 6.349-2.297 9.378.795 1.071 1.766 1.468 2.866 2.127 1.393.767.255 3.838.701 5.321.606 3.621 3.902 5.851 7.161 3.5 2.068-.313 3.736 5.706 5.237 7.217a24.254 24.254 0 0 0 3.069 3.319c3.328 8.565 20.378 12.908 28.808 12.412 8.828-.924 14.784-8.424 19.743-15.081 2.546-3.546 4.202-7.516 4.804-11.845.605-4.352.341-8.711-.068-13.067-.859-9.257-2.215-22.592-3.09-31.948 3.163-.261 5.992-2.955 5.896-6.228Z" clip-rule="evenodd"></path><path fill="#4F66AF" fill-rule="evenodd" d="M100.567 62.88c-.003.012.002.022.005.036l.002-.01-.007-.027M100.566 63.014c-.011-.012-.028-.021-.044-.034l-.001.002.045.032" clip-rule="evenodd"></path><path fill="#000" fill-rule="evenodd" d="M169.019 69.64c1.039-.863 2.675-.068 2.323 1.354-.383 1.548-2.042 2.606-3.411 3.242-1.41.655-2.783.78-4.321.71l-.019-.005c.427 1.713.67 3.493.996 5.216.415 2.186.822 4.373 1.224 6.56.389 2.115.88 4.233 1.178 6.358.301 2.145.59 4.292.886 6.438.494 3.585.892 7.185 1.312 10.78l.201 1.702c.42 3.601.759 7.207-.038 10.79-.748 3.359-2.431 6.492-4.384 9.296-1.912 2.745-4.048 5.385-6.393 7.773-4.523 4.606-10.1 8.295-16.64 8.979-2.816.294-5.824-.033-8.471-1.057l-.176-.069c-2.68-1.059-5.962-2.871-6.659-5.845-.428-1.824 1.451-3.249 3.098-2.383.764.401 1.338.86 1.965 1.434l.111.103c.512.476.709.622 1.3.994 1.212.763 2.12 1.124 3.497 1.47 2.538.639 5.277.538 7.854-.217 5.471-1.604 9.715-5.789 13.35-9.985 1.974-2.278 3.848-4.668 5.293-7.324 1.516-2.786 2.216-5.712 2.174-8.882-.047-3.577-.541-7.168-.866-10.728a651 651 0 0 1-.905-10.892c-.252-3.409-.276-6.833-.364-10.252l-.018-.64c-.051-1.816-.087-3.632-.129-5.447-.04-1.81-.184-3.644.003-5.446.013-.132.19-.165.233-.032.11.338.206.68.297 1.026a.17.17 0 0 1 .048-.027c1.206-.414 2.315-1.241 3.22-2.133.862-.851 1.313-2.098 2.231-2.86ZM103.088 44.28c.757-3.11 4.163-3.805 6.682-2.307 1.212.72 2.182 1.759 3.313 2.584 1.126.821 2.369 1.48 3.681 1.946 2.607.925 5.357 1.261 8.112 1.273 6.706.03 13.274-1.856 19.99-1.645 5.196.162 10.712 1.699 14.481 5.456 2.03 2.025 3.339 4.627 4.041 7.39.328 1.292.572 2.614.765 3.934l.047.33c.108.77.281 1.587.297 2.367.015.7-.162 1.432-.258 2.125-.202 1.46-2.463 1.294-2.788 0-.74-2.946-.431-5.987-1.335-8.923-.801-2.604-2.355-4.881-4.607-6.438-9.498-6.569-21.679-1.068-32.144-1.58-2.558-.124-5.153-.52-7.566-1.4-1.244-.455-2.469-1.01-3.597-1.706-1.034-.638-1.929-1.44-2.886-2.178l-.422-.321c-.656-.494-1.772-1.265-2.434-.612-.288.284-.305.927-.3 1.417l.003.222c.03 2.084.455 4.163-.325 6.176-.355.918-1.343 1.497-2.283.977l-.049-.028c-1.987-1.183-4.599 1.194-3.072 3.162l.048.06c.859 1.044.401 2.883-1.137 2.879l-.055-.001c-2.74-.086-3.956 3.34-1.594 4.836l.073.045c1.917 1.148.235 3.907-1.73 2.96.166.08-.123.079-.289.301-.159.214-.17.398-.133.668.115.817.833 1.506 1.415 2.023 1.322 1.174 2.96 1.985 4.649 2.479 6.762 1.978 13.7-.442 20.289-1.903 6.87-1.523 14.628-2.136 20.619 2.186.071.051.009.165-.07.12-4.299-2.498-9.565-2.276-14.265-1.252-6.162 1.343-12.271 3.842-18.583 4.5 1.772 3.13 2.514 6.826 2.04 10.405-.325 2.464-1.306 4.601-2.463 6.767l-.221.413c-1.032 1.944-1.832 3.78-1.845 6.032-.012 2.238-3.337 2.71-3.901.529-1.28-4.953 3.382-8.855 5.284-12.939 1.626-3.491 1.676-7.562.36-11.137-1.484.12-2.98.132-4.491-.003a21.414 21.414 0 0 1-3.934-.72l-.52 2.19c-.69 2.916-1.33 5.83-1.523 8.86-.143 2.225-.135 4.462.082 6.683.187 1.918.583 3.767.986 5.64.346.456.522 1.154.425 1.71 2.244.646 4.008 2.417 4.653 4.763.039.143-.16.223-.235.099-1.53-2.539-5.47-3.473-7.961-1.796-2.38 1.602-3.319 4.835-1.971 7.395.708 1.346 1.759 2.292 3.113 2.943l.272.128c.71.336 1.362.703 1.818 1.378.593.875.613 1.8.557 2.801l-.025.405c-.037.671-.045 1.361.154 2.006l.046.143c.052.161.108.303.204.457.028.045.298.31.386.406l.111.033.123.005c.138.002.318-.057.259-.016l.016-.009c.052-.033.1-.067.141-.098l.076-.059c.18-.26.404-.474.68-.637l.264-.118c.684-.723 1.856-.343 2.347.377.353.518.543 1.045.559 1.564.055-.089.177-.137.255-.038l.465.593c1.78 2.275 3.529 4.564 5.551 6.637a36.965 36.965 0 0 0 3.565 3.205c1.069.845 3.098 1.657 3.129 3.195.01.499-.345.853-.778 1.022-1.411.552-3.155-1.324-4.174-2.236l-.083-.074a30.004 30.004 0 0 1-3.436-3.576c-2.04-2.492-3.746-5.36-4.498-8.515-.035.55-.272 1.09-.731 1.599a4.47 4.47 0 0 1-2.345 1.349c-2.027.443-4.006-.287-5.212-1.977-1.02-1.428-1.32-3.315-1.188-5.04l.016-.208c.019-.276.042-.784.114-1l-.638-.351a10.544 10.544 0 0 1-2.16-1.563c-2.615-2.413-3.928-6.334-2.732-9.765.748-2.147 2.32-4.014 4.333-4.985-.336-.778-.449-1.702-.576-2.519l-.021-.135c-.216-1.341-.396-2.699-.464-4.056a36.685 36.685 0 0 1 .425-7.596c.647-4.068 1.985-8.383 4.439-11.796-1.872-.743-3.595-1.82-4.925-3.314-1.389-1.562-2.275-3.798-1.2-5.782a4.27 4.27 0 0 1 1.04-1.268c-.71-1.343-.94-2.931-.502-4.449.524-1.814 1.948-3.229 3.668-3.89-.418-1.718-.076-3.567 1.2-5 1.266-1.42 3.232-1.938 5.051-1.614.099-1.828-.476-3.772-.037-5.575Zm-5.103 64.187c1.668-.817 3.645-.687 5.311.087l.113.053c1.82.883 4.229 2.945 3.651 5.138-.339 1.282-1.763 1.72-2.868 1.167-.922-.463-1.133-1.29-1.595-2.121-.328-.587-.732-1.047-1.207-1.519-1.002-.995-2.127-1.735-3.405-2.326-.184-.085-.178-.392 0-.479Zm42.032-44.327c-.156-.071-.043-.316.114-.271 4.192 1.197 8.1 3.885 10.436 7.616.142.228.164.603 0 .828l-.076.102c-.107.14-.213.243-.414.275-.379.058-.708-.04-.926-.377-2.3-3.556-5.248-6.394-9.134-8.173Zm28.061.705c.355-.602 1.297-.481 1.484.194l.027.058c.102.23.056.277-.133.147.467.385.679.959.536 1.576-.772 3.33-4.543 5.71-7.831 5.382-.287-.029-.326-.382-.066-.487 1.265-.512 2.388-1.344 3.291-2.365.877-.993 1.246-2.128 1.718-3.327.177-.45.453-.774.841-.95.051-.072.096-.147.133-.228Zm-18.696-2.14h.023c1.689.219 3.15 1.053 4.336 2.275 1.143 1.177 2.585 3.119 2.461 4.846-.082 1.144-1.709 1.799-2.316.627-.362-.699-.444-1.465-.698-2.204a9.07 9.07 0 0 0-.939-1.925c-.793-1.243-1.883-2.296-2.998-3.246-.131-.112-.04-.373.131-.374Zm-43.328-.508c-.375-.357.015-.965.491-.845 2.513.637 5.001 1.41 7.613 1.488 1.305.038 2.603-.065 3.895-.234l.655-.087c1.007-.132 2.033-.235 3.029-.028.664.138.794.994.38 1.44-1.954 2.11-5.724 1.908-8.316 1.553-2.815-.387-5.655-1.293-7.747-3.287Zm45.373-6.574c-.172-.239.118-.615.392-.51 2.497.966 5.113 3.48 5.801 6.11.182.694-.694 1.219-1.208.703-.958-.961-1.635-2.096-2.445-3.176-.807-1.077-1.751-2.034-2.54-3.127Zm-40.913 1.174c-.2-.2.001-.598.289-.497 1.626.576 3.264 1.075 4.972 1.336 1.749.268 3.515.064 5.273.173.712.044 1.196 1.15.405 1.495-3.514 1.53-8.286.143-10.939-2.507Zm4.49-3.432c-.279-.207-.12-.774.26-.616 1.548.645 3.114.803 4.775.737.614-.025.743.94.145 1.07-1.837.4-3.679-.081-5.18-1.191Z" clip-rule="evenodd"></path><path fill="#000" fill-rule="evenodd" d="M132.525 123.613c.022-2.329 2.039-2.73 3.956-2.42 3.244.525 6.5.895 9.788.961l.566.01a.611.611 0 0 1 .451-.256c1.823-.197 3.685-.165 5.517-.22 1.599-.046 3.242-.206 4.84-.081l.127.011c1.954.19 4.016 1.187 3.78 3.481-.217 2.123-2.247 4.004-3.867 5.184-.328.236-.663.458-1.008.66a.661.661 0 0 1-.448.254c-1.596.862-3.357 1.372-5.18 1.542-3.864.36-8.357-.029-12.069-1.705-1.207-.544-2.332-1.224-3.327-2.06-1.535-1.288-3.143-3.242-3.126-5.361Zm15.226 4.617a13.5 13.5 0 0 0-4.571.648c-1 .323-1.911.944-2.87 1.375 3.229 1.232 6.981 1.501 10.293 1.277a12.456 12.456 0 0 0 4.176-1.011c-.205-.147-.412-.298-.629-.428a12.308 12.308 0 0 0-2.054-1.003 13.562 13.562 0 0 0-4.345-.858Zm.519-20.363c-.418-.3-.086-1.295.807-1.141 8.112 1.394 3.909 15.373-6.448 7.702-1.233-.995.26-3.187 1.589-2.335l.472.364c1.534 1.177 4.072 2.955 5.89 1.047 1.716-2.405-.714-4.667-2.31-5.637Zm5.492-10.58c1.725-1.472 3.888-.387 5.157 1.103l.224.267c.254.304.535.658.704 1.037 1.407-1.198 3.315-2.041 5.14-1.494 1.771.533 2.78 2.224 2.476 4.039-.345 2.064-1.906 3.452-3.584 4.524l-.475.303c-2.016 1.285-3.903 2.581-5.562 4.348-.271.287-.856.249-1.033-.133l-.143-.308-.144-.308c-1.177-2.51-2.438-5.004-3.474-7.574-.767-1.905-1.016-4.329.714-5.804Zm-19.657 1.333.263-.304c1.263-1.47 3.404-2.456 5.092-1.029 1.797 1.52 1.445 4.033.644 5.971-.964 2.337-2.09 4.623-3.172 6.916l-.232.491c-.097.205-.192.41-.287.615-.177.383-.764.421-1.033.134-1.608-1.712-3.426-2.979-5.369-4.224l-.586-.373c-1.706-1.082-3.318-2.479-3.668-4.578-.3-1.811.703-3.513 2.476-4.04 1.829-.542 3.733.295 5.142 1.495.168-.388.457-.754.73-1.074Zm2.312-10.553c.617.801-.042 2.111-.943 2.318-1.116.257-2.243.1-3.339.42-1.004.291-1.965.876-2.826 1.459a17.71 17.71 0 0 0-2.716 2.252c-.493.502-1.116 1.694-1.878 1.716-.757.022.26-2.348.344-2.553a13.855 13.855 0 0 1 2.485-3.978c2.071-2.322 6.456-4.77 8.873-1.634Zm23.124-.641.517.143c1.279.356 2.644.793 3.742 1.56l.086.061.133.097c1.377 1.028 3.326 3.078 2.35 4.866-.067.123-.21.136-.325.085-1.298-.568-2.261-1.704-3.641-2.18l-.255-.086c-1.337-.45-2.991-.924-4.43-.881-1.012.329-2.379.056-2.642-1.176l-.012-.06-.023-.128c-.152-.842.074-1.916.944-2.321 1.192-.556 2.356-.309 3.556.02Z" clip-rule="evenodd"></path><path fill="#000" fill-rule="evenodd" d="M129.449 129.599c1.711-4.009 5.444-6.955 9.742-8.033 3.157-.788 6.469-.763 9.687-.45 1.685.163 3.494.296 5.082.923 1.357.535 2.462 1.546 3.294 2.733.989 1.407 1.662 3.017 2.135 4.667.067.235.13.471.189.709-.206 1.245-.642 2.305-1.795 3.088-1.125.764-2.467 1.077-3.805 1.188a6.182 6.182 0 0 1-.374-.194c-2.086-1.195-3.553-4.017-6.185-3.635-2.349.341-3.895 3.298-5.292 5.031-4.483.523-8.963-.825-12.611-3.39a7.45 7.45 0 0 1-.067-2.637m33.176-3.041a17.29 17.29 0 0 0-1.346-2.901 16.496 16.496 0 0 0-7.713-6.843c-7.632-3.268-17.506-.964-23.669 4.397-2.105 1.833-4.234 4.526-4.878 7.423a1.08 1.08 0 0 0-.523.279c-4.452-2.805-9.038-5.503-12.626-9.39-2.605-2.825-4.418-6.168-5.528-9.841-.09-.302-.578-.258-.563.077l.013.234c-.047-.144-.266-.07-.283.07-.597 4.462-1.344 9.193-.656 13.679.411 2.676 1.627 4.635 3.251 6.751 1.741 2.268 3.711 4.377 5.726 6.4 1.279 1.284 2.614 2.765 4.18 3.707 1.821 1.094 3.886 1.925 5.83 2.769a75.43 75.43 0 0 0 6.027 2.347c4.087 1.384 8.311 2.34 12.609 2.759 3.441.334 7.374.698 10.672-.597 2.527-.992 4.568-2.786 6.186-4.944 1.762-2.351 3.154-5.029 3.924-7.852.8-2.933-.464-8.052-.633-8.524" clip-rule="evenodd"></path></svg>