<svg xmlns="http://www.w3.org/2000/svg" width="240" height="324" fill="none" id="man"><path fill="#fff" fill-rule="evenodd" d="M127.585 126.83c6.155.304 15.738 2.943 16.217 4.63.748 2.634-.859 12.51 1.83 17.83 1.146 2.267 5.498 2.064 7.185 2.803 5.643 2.47 22.348 7.157 25.792 13.058 1.38 2.364 9.861 31.697 14.367 46.662a43.342 43.342 0 0 0 1.705 4.692l.229-1.122c1.838-9.045 2.756-14.521 2.756-16.427 0-2.979-2.375-15.545 0-18.741 2.352-3.164 8.018-5.751 10.567-5.802l.077-.001c1.673 0 3.126-.523 4.357-1.57l1.805-.908c9.181-4.609 14.545-7.137 16.092-7.585 2.469-.714 6.67.807 4.569 3.091-1.4 1.522-4.919 4.215-10.557 8.079l-2.125 1.689.256.134c2.748 1.447 4.363 2.665 4.846 3.654.499 1.019.26 2.224-.717 3.616l.148.145c1.235 1.212 1.853 2.026 1.853 2.44v2.022c1.228 1.8 1.535 3.301.921 4.504-.614 1.202-1.588 2.244-2.922 3.125-.983 2.586-2.153 4.426-3.511 5.521-1.358 1.096-3.704 2.007-7.04 2.735l-3.019 7.22-2.446 10.144-1.232 11.319.358.259c1.658 1.208 2.721 2.104 2.721 3.03 0 1.442-6.692 35.359-17.104 36.877-2.252.329-13.93-1.282-17.765-4.402l.057.337c.902 5.451.711 8.282-.573 8.493-15.779 2.588-60.592 3.387-134.44 2.399-.44-39.21 1.547-65.324 5.96-78.34 11.286-33.291 23.73-44.661 28.082-45.635 3.814-.853 17.037-6.118 20.733-7.515 2.413-.912 2.93-3.647 5.679-3.647l.223.001c2.659.027 5.017.502 6.341-.866 3.477-3.59 2.505-8.56 3.948-13.318.794-2.622 6.225-5.003 13.777-4.63Z" clip-rule="evenodd"></path><path fill="#000" fill-rule="evenodd" d="M110.677 136.23c.361-.716 1.32-.623 1.953-.298 1.898 1.387-.088 4.078-.613 5.772-1.351 3.285-3.696 6.495-6.934 8.031.268 3.266.572 6.524.685 9.8 4.139 5.137 11.119 7.012 17.315 8.454 9.731 2.692 20.714-2.824 23.998-12.446-3.738-2.125-4.948-7.688-3.832-11.57.096-.272.519-.393.669-.088 1.024 2.106.887 4.675 2.051 6.756 11.169 1.07 25.584 5.286 32.901 14.322 3.243 4.52 4.528 10.4 6.125 15.64 3.408 10.801 6.123 21.821 9.465 32.634l.394-2.046c1.08-5.636 2.061-11.348 1.331-17.079l-.013-.274c-.238-4.561-1.665-13.036 1.871-16.114 3.198-2.445 7.831-4.41 11.844-3.283 7.141-3.179 13.305-8.532 20.911-10.618 2.341-.481 5.708.089 5.155 3.266-1.533 5.556-7.955 7.713-12.345 10.578 2.814.763 6.245 4.186 4.046 7.171a.956.956 0 0 1-.053.125c1.783.79 2.033 2.777 1.595 4.48-.044.45-.162.064.102.472 2.012 1.898 1.123 7.188-1.908 7.367.198 2.507-1.411 4.942-3.45 6.309-2.197 1.473-5.375 1.537-7.194 3.553-4.271 7.534-5.744 16.429-6.21 25.056 2.816 1.055 5.342 4.207 2.784 6.882-.051.006-.101.012-.152.016-1.483 3.959-2.056 8.179-2.84 12.313-1.207 7.055-4.351 13.532-8.366 19.409-4.643 7.779-17.129 6.546-23.419 1.525.025 1.318.242 2.627-.18 3.9-.622 1.373-2.14.78-2.29-.573-3.325 1.871-4.108-4.304-.412-3.325-.284-4.464-.449-8.934-.583-13.405-4.184 1.355-4.365-5.591-.084-4.202l-.005-1.92c-.032-14.723.131-29.497 2.073-44.104.179-1.092.484-2.149.661-3.235.019-.113.195-.081.195.027.301 20.45-1.035 40.944.359 61.402 1.16.353 1.623 1.685 2.482 2.462 1.908 1.761 4.505 2.619 7.046 2.918 7.113.998 10.184-1.175 13.352-7.361-1.429.955-3.359-.731-2.489-2.243l.028-.046c.904-1.602 3.458-.642 3.135 1.152 3.185-5.102 4.851-10.855 6.083-16.692l.166-.698c.599-2.478 1.375-5.318 2.812-7.56-8.764-2.234-17.336-9.042-18.708-18.382-2.225 6.993-5.239 13.829-8.112 20.631-.888 2.365-1.257 4.907-2.529 7.101-.296.508-1.046.377-1.213-.158-1.144-5.116 2.322-9.982 4.122-14.588 1.469-2.603 5.687-14.488 8.303-14.517-2.939-12.886-6.859-25.675-10.592-38.4-3.609-17.182-10.965-20.496-26.548-25.906 2.811 14.329 15.644 28.199 8.815 43.228l-.166.39c-.698 1.657-1.278 3.326-.791 5.145.473 1.765 1.551 3.297 2.413 4.884 4.819 8.966 1.502 19.437-.361 28.774-2.354 10.949-4.679 21.909-7.112 32.841-.479 2.181-.79 4.428-1.514 6.542-.374 1.09-2.24.987-2.119-.286.23-2.468.923-4.876 1.43-7.3 3.029-15.695 7.128-31.205 9.734-46.968 1.677-11.669-4.923-13.462-4.677-21.002.897-3.856 3.272-7.297 3.136-11.407.527-12.578-8.632-22.956-9.762-35.19l-1.997-.712a287.85 287.85 0 0 1-2.988-1.086c5.23 36.59 3.642 73.979 1.027 110.75-.534 1.696-.026 13.549-2.265 12.497-.113.662-.465 1.313-1.229 1.31-6.945.064-13.891.174-20.836.256-3.34-.308-7.931.968-10.772-.96-3.281-.936-3.658-9.824-4.535-12.991l-.342-2.304c-5.574-37.644-10.562-76.063-6.555-114.08-5.575.215-6.725 6.233-7.139 10.615-1.034 9.672-7.28 18.002-7.58 27.785a16.582 16.582 0 0 0 1.371 6.852c2.516 5.339 6.868 11.511 3.615 17.474-3.846 4.642-3.513 5.864-2.102 11.601 3.972 18.965 10.567 37.197 16.84 55.482-1.363 7.107-9.562-19.277-10.333-21.266-3.63 1.825-5.612-4.233-1.45-4.665-2.673-8.953-5.134-17.973-7.182-27.093l-.055-.257c-.905-4.213-2.685-9.147.321-12.885 7.75-7.841-5.12-16.605-3.497-26.104-1.402 1.04-3.524-.054-3.492-1.8-.063-1.967 2.577-2.974 3.848-1.474 1.306-7.706 5.85-14.434 7.226-22.118l.062-.361c.466-2.715.598-5.573 1.931-8.048-1.815 1.18-3.748 2.133-5.736 2.974 3.555 2.97-3.329 5.681-2.76 1.093-19.492 5.641-23.898 13.509-31.055 31.577 1.337-1.299 3.627.383 2.826 2.04-.638 1.746-3.423 1.235-3.422-.626l-.326.779c-4.34 10.381-8.29 21.014-10.276 32.124 3.895-.55 2.903 5.676-.625 3.921-1.416 9.881-1.438 19.901-1.265 29.861 3.284-1.723 3.383 4.132.031 2.463.123 8.162.302 16.325.438 24.487.027 1.737-2.652 1.729-2.694 0-.313-12.542-.883-25.106-.612-37.652-.255-21.775 6.002-42.762 15.325-62.267 8.25-22.459 19.645-25.013 40.61-31.543 1.935-2.874 6.069-5.592 9.442-3.787 1.888-3.048 2.846-6.659 4.243-9.906Zm-35.92 78.275c.079-.277.474-.207.486.066.176 3.523.02 7.069-.221 10.607-.146 2.16-.326 4.318-.478 6.463a616.931 616.931 0 0 0-.976 16.997 2.399 2.399 0 0 1 2.548.468l.061.059a1.8 1.8 0 0 1 .499.773c.138.265.208.549.208.852l-.001.076a2.42 2.42 0 0 1-1.191 2.079c-.377.218-.78.326-1.215.328-.047.004-.094.009-.14.011a1.776 1.776 0 0 1-.904-.201l-.042-.013a588.787 588.787 0 0 0-.256 8.634c-.057 2.509-.133 5.017-.184 7.526l-.023 1.255-.046 2.773c-.015 1.141-.008 2.233-.396 3.309l-.046.124c-.279.718-.496 1.718-1.243 2.117-.595.319-1.398.201-1.74-.42-.287-.52-.038-1.268.386-1.619-.008-.023-.02-.044-.031-.068-.066-.19-.165-.37-.224-.562-.186-.609-.135-1.257-.137-1.89 0-1.115.037-2.231.067-3.345.066-2.372.142-4.741.234-7.11.314-7.948.906-15.895 1.583-23.821l.23-2.675c.306-3.557.623-7.118 1.071-10.657l.066-.508a2.358 2.358 0 0 1-.643-.473c-.711-.747-1.143-1.865-1.548-2.828l-.093-.219c-.44-1.028-.845-2.067-1.054-3.171l-.02-.101c-.096-.47-.284-1.303.214-1.53.26-.119.425-.034.51.226a.122.122 0 0 1-.017.101c.204.315.525.609.728.901l.695.993.343.499c.435.64.9 1.253 1.38 1.858.377-2.655.84-5.299 1.56-7.884Zm28.467 59.155c.868-.681 2.282-.311 2.282.945 0 1.261-1.416 1.625-2.282.944l-.043-.032-.042-.033c-.471-.369-.487-1.329-.035-1.729l.035-.029c.028-.024.055-.045.085-.066Zm-37.826-2.453.075.001c.392 0 .758.1 1.098.298.148.112.294.226.442.341.27.27.456.591.56.961l.078.579c.01.3-.051.579-.188.84a1.65 1.65 0 0 1-.45.701 1.608 1.608 0 0 1-.702.45c-.238.126-.492.19-.764.19l-.075-.001c-.394 0-.76-.1-1.1-.299-.148-.112-.294-.226-.442-.34a2.176 2.176 0 0 1-.56-.962c-.025-.192-.05-.386-.078-.579-.01-.3.053-.579.188-.839.089-.27.239-.505.45-.701a1.62 1.62 0 0 1 .702-.451c.238-.125.494-.189.766-.189Zm98.897-4.019.554.074c.53.121.956.512 1.242.958.152.239.234.497.247.773.061.275.048.552-.038.829-.064.27-.188.507-.372.708-.063.099-.137.19-.222.271-.173.289-.435.479-.705.674a1.478 1.478 0 0 1-.742.236 1.014 1.014 0 0 1-.53 0 1.477 1.477 0 0 1-.74-.236l-.403-.313a5.48 5.48 0 0 1-.332-.427l-.205-.484c-.125-.387-.063-.729.005-1.116a.967.967 0 0 1 .05-.188l.046-.123c.121-.321.186-.43.402-.71l.082-.11c.041-.054.083-.108.132-.156.135-.14.327-.256.479-.376a2.097 2.097 0 0 1 1.05-.284Zm-71.728-1.353.07.001c.306.002.594.078.86.232l.346.269c.212.213.358.462.44.752.019.152.04.304.061.455a1.29 1.29 0 0 1-.148.659 1.273 1.273 0 0 1-.353.549 1.293 1.293 0 0 1-.549.353 1.272 1.272 0 0 1-.593.148l-.064-.002c-.308 0-.596-.078-.862-.232l-.346-.267a1.72 1.72 0 0 1-.44-.754c-.019-.152-.04-.302-.061-.454-.008-.235.04-.455.148-.658.07-.211.186-.395.353-.549.154-.167.338-.286.549-.353.184-.097.38-.146.589-.149Zm-13.943-.699c.441-.004.89.121 1.25.376.351.25.617.518.789.922.046.11.092.218.133.328.181.484.215.97-.036 1.443-.243.459-.767.659-1.236.797-.397.118-.847.137-1.242-.004a3.022 3.022 0 0 1-.566-.252c-.332-.205-.512-.448-.734-.748a1.87 1.87 0 0 1-.26-.96c0-.344.087-.663.26-.961.34-.581.97-.937 1.642-.941Zm-22.395.408c.558 0 1.048.258 1.384.693.34.442.465.992.315 1.539-.158.579-.638 1.086-1.232 1.232-.439.108-.798.104-1.236.03-.37-.064-.652-.284-.935-.512-.324-.264-.423-.746-.37-1.135.05-.389.23-.642.503-.873l.002-.006-.102.078c.038-.033.076-.069.115-.105.012-.021.023-.045.033-.068a1.765 1.765 0 0 1 1.523-.873Zm130.054-6.402c.307-.082.615-.082.922 0 .226.053.422.157.589.311.169.11.308.251.412.427l.034.059c.241.41.279.879.175 1.336-.128.564-.648 1.078-1.21 1.211l-.019.003-.019.005a1.286 1.286 0 0 1-.687.03 1.259 1.259 0 0 1-.64-.205 2.07 2.07 0 0 1-.619-.617 1.285 1.285 0 0 1-.205-.643.881.881 0 0 1 0-.456c.011-.231.078-.444.205-.643l.27-.349.028-.023a1.73 1.73 0 0 1 .764-.446Zm-21.27-11.184c2.77 0 2.766 4.299 0 4.299-2.769 0-2.765-4.299 0-4.299Zm-101.404-.543a1.65 1.65 0 0 1 .873.038c.175.074.348.148.521.219l.444.343c.082.07.123.146.199.245l.095.124c.137.184.14.223.291.616a2.133 2.133 0 0 1-.525 2.048l-.06.061a1.655 1.655 0 0 1-.703.452c-.172.1-.355.148-.552.148a1.65 1.65 0 0 1-.872-.038l-.522-.22-.444-.342-.342-.444-.11-.26-.11-.262-.078-.581c-.01-.302.05-.581.188-.843.053-.184.146-.347.28-.482.098-.165.229-.296.394-.393.135-.136.298-.229.482-.281.17-.1.355-.148.55-.148Zm136.99-3.071c.23-.009.446.04.644.145.07.024.138.053.203.087.256.15.459.353.609.607.122.194.19.403.2.629.046.204.042.41-.013.614l-.018.061a1.667 1.667 0 0 1-.241.511c-.142.224-.33.408-.562.546a1.691 1.691 0 0 1-.835.226c-.598 0-1.113-.324-1.428-.821-.044-.069-.07-.158-.101-.23-.028-.068-.072-.154-.096-.232-.08-.3-.08-.6 0-.901.053-.22.153-.412.303-.575.12-.183.278-.329.475-.435.244-.142.506-.218.784-.231l.076-.001Zm-116.94-2.103c.292-.08.583-.086.873-.019l.073.019c.232.055.433.16.606.317.192.127.347.294.458.5a1.787 1.787 0 0 1 0 1.797c-.158.269-.371.48-.64.638l-.232.112a1.252 1.252 0 0 1-.625.199.85.85 0 0 1-.448 0 .83.83 0 0 1-.425-.114.828.828 0 0 1-.372-.218 1.25 1.25 0 0 1-.433-.471l-.171-.404-.059-.448.059-.446.093-.22a1.777 1.777 0 0 1 1.242-1.242Zm104.771-3.566a1.75 1.75 0 0 1 .921-.042c.207 0 .401.053.581.159.197.054.365.151.509.295.251.163.448.379.594.647l.232.552c.14.357.089.883.005 1.243-.07.295-.205.553-.406.773a1.14 1.14 0 0 1-.408.408 1.708 1.708 0 0 1-.677.38l-.071.019-.025.007c-.004.002-.008.002-.013.002-.002.002-.006.002-.008.002-.102.025-.205.04-.313.044a1.75 1.75 0 0 1-.921-.042l-.549-.232c-.157-.119-.311-.239-.467-.36l-.361-.467a1.692 1.692 0 0 1-.273-.858 1.16 1.16 0 0 1 0-.613c0-.209.053-.401.156-.581a1.72 1.72 0 0 1 .478-.744c.156-.121.31-.241.467-.359.184-.079.367-.157.549-.233Zm-134.746-7.566c.319-.087.638-.087.957 0l.428.18c.212.114.379.268.506.464.16.174.268.379.323.613.124.322.11.831.01 1.159a2.236 2.236 0 0 1-.553.946c-.446.461-1.13.594-1.737.455a1.515 1.515 0 0 1-.469-.203c-.458-.283-.767-.778-.764-1.325 0-.059.004-.119.012-.178-.03-.12-.04-.245-.036-.376l.064-.478.004-.012a1.786 1.786 0 0 1 1.175-1.224l.07-.021h.01Zm159.42-47.459c-.577-4.733-2.747-9.826-9.365-7.046l-.492.184c-1.638.62-3.546 1.435-4.543 2.868-.686.987-.454 2.899-.549 4.051-.431 3.745-.2 7.485.25 11.215.58 8.741-1.257 17.798-4.915 25.742 3.661 5.925 8.56 11.452 15.243 13.921.283-6.736 1.601-13.35 3.004-19.923l.056-.287c.561-2.964.842-6.007 2.788-8.472 3.958-4.299 9.403-1.866 12.008-8.773-.547-.277-.245-1.224.415-1.042 2.285.406 2.656-3.831 1.092-4.852-1.63-.994.011-2.828-.683-4.152-.386-.57-1.221-.589-1.599-1.247-1.003-2.419 4.015-3.97-1.886-6.698-1.208-.43-2.558-.163-3.776-.168-1.792.167-3.216 1.431-4.855 1.828 1.785 4.622-2.718 9.073-6.782 5.381-2.211 2.091-4.684 6.857.692 4.635 2.63-1.756 4.895-4.027 7.95-5.109l.064-.02c1.134-.371 6.095-2.783 5.849-.696-1.858 1.795-4.923 1.773-7.075 3.23-2.984 1.38-4.892 4.725-8.464 4.679-.824 5.002 4.85 1.958 6.963.579l.586-.318c2.98-1.611 6.006-3.103 9.481-3.123.959-.006.955 1.473 0 1.486-4.529.028-8.216 2.861-12.01 4.967-.374 2.919 3.9 1.641 5.522 1.21 1.701-.239 4.432-2.079 5.92-1.107.582 1.496-1.979 1.385-2.871 1.839 4.071 1.956.504 3.188-.588.182l-.319.109c-2.727.916-9.338 2.803-8.551-1.817-.998.442-2.215.706-3.318.461-2.749 4.068-7.135 2.494-.76-.279-1.437-.669-1.917-3.25-.537-4.21-5.018-.307-1.292-5.574.785-7.329a12.653 12.653 0 0 1-.563-.605c-1.198.57-2.457.917-3.803 1.039-1.288.117-1.576-2.077-.304-2.257 1.363-.192 2.618-.556 3.818-1.241 1.818-.785 2.439 2.591 4.259 2.71.993.197 1.664-.674 1.863-1.545Zm-42.249 43.557c.44 0 .83.184 1.149.476.319.291.457.729.476 1.147.008.224-.038.434-.14.628a1.213 1.213 0 0 1-.336.522 1.683 1.683 0 0 1-1.149.476c-.439 0-.83-.184-1.149-.476-.319-.294-.457-.729-.476-1.15a1.229 1.229 0 0 1 .14-.625c.059-.181.155-.341.289-.478l.047-.044a1.674 1.674 0 0 1 1.149-.476Zm13.315-10.023.071.001c.372.002.716.095 1.037.281.139.108.279.214.416.322a2.048 2.048 0 0 1 .529 2.001 1.426 1.426 0 0 1-.235.588 2.05 2.05 0 0 1-.727.724 2.008 2.008 0 0 1-1.02.277 2.026 2.026 0 0 1-1.745-1.001 1.403 1.403 0 0 1-.237-.588 2.048 2.048 0 0 1 .475-1.946l.053-.055c.186-.201.406-.343.661-.426.225-.118.466-.177.722-.178Zm-101.62.113a.882.882 0 0 1 .468 0c.233.011.45.08.65.207l.356.275.103.124c.22.269.226.314.395.724.07.228.08.456.03.684 0 .155-.04.298-.117.431a.85.85 0 0 1-.221.379.854.854 0 0 1-.307.308c-.164.15-.359.254-.583.307l-.454.061c-.059-.008-.12-.017-.18-.023a1.297 1.297 0 0 1-.208-.023l-.068-.015-.063-.017a1.298 1.298 0 0 1-.241-.097.893.893 0 0 1-.387-.226 1.323 1.323 0 0 1-.452-.493l-.03-.068a1.193 1.193 0 0 1-.1-.226.836.836 0 0 1-.109-.408 1.224 1.224 0 0 1 .011-.578l.019-.064.162-.387c.085-.131.174-.264.287-.372.07-.061.237-.192.331-.257l.058-.039c.201-.127.419-.196.65-.207Zm-25.47-3.022c.305-1.199 1.877-1.577 2.733-.721.855.856.477 2.429-.72 2.733l-.138.034a1.57 1.57 0 0 1-1.908-1.911l.034-.135ZM202.09 204.5c-.009-.119.143-.161.219-.091 1.019.913 1.667 2.008 2.903 2.716 1.243.71 2.523.653 3.818 1.111a.471.471 0 0 1 0 .899c-2.451.856-6.754-2.046-6.94-4.635Zm-115.152-.186c.273-.085.548-.097.82-.036.186 0 .36.046.517.139.176.049.326.138.455.264.154.092.277.216.37.37.181.199.304.432.367.698l.072.547-.072.548c-.07.162-.14.327-.207.49l-.189.256c-.153.204-.177.206-.548.482-.237.15-.492.232-.765.243-.182.05-.364.05-.547 0-.184 0-.357-.047-.518-.14a1.033 1.033 0 0 1-.454-.264 1.563 1.563 0 0 1-.528-.577c-.07-.163-.14-.328-.207-.49l-.074-.548.074-.547.004-.017c.097-.342.27-.64.52-.892l.41-.317a1.93 1.93 0 0 1 .5-.209Zm98.622.41a1.716 1.716 0 0 1 1.656.437c.43.43.599 1.07.438 1.655a1.713 1.713 0 0 1-1.709 1.252 1.66 1.66 0 0 1-.824-.224l-.33-.256a1.224 1.224 0 0 1-.338-.526 1.219 1.219 0 0 1-.141-.63l-.002-.04a.607.607 0 0 1 .029-.239c0-.083.013-.163.034-.241a1.714 1.714 0 0 1 1.187-1.188Zm-126.16-5.723c.188-.007.363.031.526.118a.99.99 0 0 1 .439.283c.135.123.228.271.283.44.087.163.125.338.118.526 0 .247-.063.478-.185.689l-.216.277c-.169.171-.37.287-.602.353l-.135.046a1.234 1.234 0 0 1-.6.049 1.222 1.222 0 0 1-.596-.224 1.137 1.137 0 0 1-.412-.412l-.116-.275a1.897 1.897 0 0 1-.042-.33c0-.015 0-.027-.003-.042 0-.082.026-.283.047-.366.046-.173.141-.338.25-.477.092-.146.219-.26.375-.345l.014-.01.016-.011c.048-.034.1-.068.15-.104.211-.122.441-.185.688-.185Zm109.096-1.501c.338 0 .653.087.944.256a.208.208 0 0 1 .03.013 1.851 1.851 0 0 1 .919 1.602 1.862 1.862 0 0 1-.919 1.602.138.138 0 0 1-.03.014 1.87 1.87 0 0 1-1.887 0 1.886 1.886 0 0 1-.927-1.616c0-.66.357-1.284.927-1.615.292-.169.607-.256.943-.256Zm-87.736-2.444.058-.001a1.2 1.2 0 0 1 .625.141c.2.066.376.178.524.336l.309.258.09.073a.89.89 0 0 1 .043.037c.207.209.348.454.429.738.025.163.046.323.063.486.046.422-.203.856-.478 1.156-.147.159-.323.27-.525.338a1.23 1.23 0 0 1-.63.139c-.459-.04-.894-.137-1.223-.492-.039-.042-.075-.087-.112-.131l-.264-.304c-.201-.203-.34-.442-.417-.717l-.059-.433c-.019-.433.192-.839.476-1.148.261-.285.705-.46 1.091-.476Zm-10.664-4.45c2.197 0 2.193 3.409 0 3.409-2.195 0-2.19-3.409 0-3.409Zm110.468-4.78.069.001c.364.002.704.093 1.019.277l.409.315c.25.254.423.549.52.892.023.179.047.359.072.537.011.279-.049.539-.175.78-.081.249-.22.466-.417.65a1.496 1.496 0 0 1-.65.417 1.514 1.514 0 0 1-.778.175 2.006 2.006 0 0 1-1.02-.277l-.41-.315a2.027 2.027 0 0 1-.494-.813l-.024-.078-.074-.539c-.01-.277.049-.537.176-.778.08-.252.22-.467.416-.651.184-.197.401-.336.651-.416.22-.117.457-.176.71-.177Zm-9.896-6.382c.196-.006.378.034.549.123.175.057.327.156.456.294.273.217.44.653.44 1.006s-.167.788-.44 1.006a1.421 1.421 0 0 1-.627.365l-.378.051c-.368.017-.742-.175-1.004-.416-.053-.049-.103-.097-.156-.144-.239-.22-.342-.548-.357-.862a.924.924 0 0 1 .105-.469.915.915 0 0 1 .252-.394c.053-.046.103-.095.156-.143a1.536 1.536 0 0 1 1.004-.417Zm62.7-11.368c1.388-1.692.58-2.896-1.507-2.477-3.593.486-6.975 2.758-10.14 4.387-3.455 1.825-7.015 3.331-10.539 5.046 1.454.893 2.535 2.291 3.362 3.886 1.648-1.253 3.756-1.852 5.814-1.93 3.733-3.576 9.915-4.395 13.01-8.912Zm-164.011 5.616c.376.001.729.09 1.06.267l.07.039.452.351c.22.203.374.443.465.72.14.267.203.556.192.865a1.7 1.7 0 0 1-.192.862c-.091.279-.245.518-.465.721a1.318 1.318 0 0 1-.477.383c-.18.073-.358.149-.537.225-.2.064-.433.072-.65.083a2.193 2.193 0 0 1-1.106-.3l-.443-.342a1.653 1.653 0 0 1-.455-.707 1.636 1.636 0 0 1-.19-.77l.002-.075c0-.017 0-.036.003-.055.025-.199.053-.397.08-.596.07-.292.203-.547.401-.763a.716.716 0 0 1 .205-.251c.279-.279.608-.47.989-.578.198-.025.397-.052.596-.079Zm98.027-5.6.064.001c.285 0 .549.072.795.213l.318.247c.197.197.332.429.406.696l.057.418c.006.218-.038.419-.137.607a1.18 1.18 0 0 1-.326.507c-.141.154-.31.262-.506.326a1.18 1.18 0 0 1-.607.135c-.283 0-.549-.072-.794-.216-.106-.08-.214-.163-.319-.245a1.559 1.559 0 0 1-.384-.629l-.02-.066-.057-.419a1.18 1.18 0 0 1 .135-.606 1.19 1.19 0 0 1 .326-.508 1.18 1.18 0 0 1 .507-.325c.169-.089.35-.134.542-.136Zm-85.679-2.289.074.001c.42.002.811.107 1.175.319.156.12.313.241.469.364.29.289.488.631.6 1.027l.082.617c.013.321-.055.619-.2.896a1.72 1.72 0 0 1-.482.75 1.722 1.722 0 0 1-.748.48 1.735 1.735 0 0 1-.896.201c-.42 0-.811-.106-1.175-.317-.156-.121-.312-.243-.47-.364a2.363 2.363 0 0 1-.599-1.027l-.082-.619a1.747 1.747 0 0 1 .2-.896c.094-.288.254-.539.48-.748.212-.229.46-.39.75-.483.256-.134.53-.2.822-.201Zm78.228-5.811c.193-.051.385-.051.577 0 .287.012.556.099.805.257l.437.339c.006.006.013.012.019.021.264.266.448.581.549.942l.077.569c.01.294-.051.568-.184.822a1.63 1.63 0 0 1-.391.64l-.07.068a1.618 1.618 0 0 1-.695.448c-.169.1-.353.148-.547.148a1.629 1.629 0 0 1-.864-.038c-.171-.074-.345-.146-.518-.218l-.055-.031c-.653-.357-1.056-1.106-1.056-1.839 0-.734.403-1.484 1.056-1.841.019-.008.036-.019.055-.03.25-.158.518-.245.805-.257Z" clip-rule="evenodd"></path><path fill="#fff" fill-rule="evenodd" d="M157.905 48.827c-11.296-3.316-50.145.083-51.105.802-1.572 1.306-9.219 5.453-10.409 6.4-10.759 11.407-.502 28.347-1.291 42.109.05 4.881-2.03 9.338-2.985 14.034-.404 2.461-.315 5.006.967 7.216 2.255 3.948 7.015 4.748 10.887 6.34 1.926.83 3.726 2.006 5.376 3.294 11.11 9.831 17.293 16.563 33.503 14.346.083.774.769 1.534 1.619 1.188 1.99-.81 3.966-1.67 5.973-2.439.429 1.035 1.662 1.33 2.497.416l.005.007c3.716-3.016 6.079-7.139 7.834-11.553a48.47 48.47 0 0 0 3.003-7.94 1.395 1.395 0 0 0-.003-.824c3.546-12.225 4.858-25.11 3.925-37.803-.189-2.619-.684-5.273-.562-7.902.11-2.376 1.133-4.624 1.913-6.837 4.022-9.407-2.126-17.892-11.147-20.854Z" clip-rule="evenodd"></path><path fill="#000" fill-rule="evenodd" d="m159.326 33.553.12-.093c1.303-1.023 2.531-2.362 4.367-1.86 1.507.412 2.267 1.66 2.59 3.166.459-.48.905-.976 1.34-1.49 1.183-1.395 3.826-.672 4.179 1.106.714 3.58.75 7.224.055 10.81a23.09 23.09 0 0 1-.376 1.62 29.483 29.483 0 0 0 2.19-3.101c.717-1.178 2.335-.594 2.447.663.029.326.046.655.051.987.505.178.853.698.72 1.336a96.419 96.419 0 0 1-2.787 10.381c1.8-.955 3.818-1.521 5.717-.847 3.017 1.074 3.736 4.366 3.146 7.2-.741 3.564-3.074 6.546-6.082 8.501-.357.537-.71 1.078-1.046 1.63a12.554 12.554 0 0 1-.86 4.554c-.642 1.621-1.775 3.023-3.169 4.088-.49 1.067-1.788 1.847-2.927 1.631l-.06-.012-.002.002c.291 1.044.543 2.099.76 3.155 1.685 8.188.832 16.71-.705 24.851l-.049.26c-1.38 7.245-2.985 14.748-6.106 21.475-2.822 6.083-7.607 11.432-14.446 12.759-8.045 1.562-16.95-.913-23.869-5.04-2.508-1.497-.209-5.44 2.288-3.919a35.378 35.378 0 0 0 11.66 4.534c3.87.752 8.199 1.008 11.911-.552 5.17-2.173 8.242-7.48 10.185-12.476 1.145-2.948 2.003-5.992 2.802-9.048 1.028-3.929 1.988-7.883 2.708-11.882 1.342-7.458 1.777-15.204.357-22.684a46.259 46.259 0 0 0-1.927-7.095 3.995 3.995 0 0 1-.367-.543c-.873-1.53-1.475-3.27-2.124-4.925a35.688 35.688 0 0 0-1.848-2.864 25.806 25.806 0 0 1-2.784-2.451c2.497-1.618 4.701-3.643 6.286-6.223.262-.425.096-.832-.214-1.061-1.266 1.584-2.905 2.926-4.629 4.115a22.38 22.38 0 0 1-2.831 2.05c-.712.141-1.432.238-2.13.318-1.988.226-3.987.141-5.964-.123-4.276-.57-22.36-5.553-29.983-3.616-1.588.403-2.337 1.828-3.178 3.166a10.219 10.219 0 0 1-2.77 2.92l-.124.087c-2.176 1.507-6.551 6.275-8.391 10.53-2.374 5.493-4.655 21.955-3.605 22.097 2.746.372 4.268 1.817 6.505 3.369.148.101.061.376-.129.306-1.477-.533-3.074-.848-4.623-1.105-1.4-.235-2.875-.277-4.227.224-2.075.769-3.087 2.508-3.503 4.47a12.06 12.06 0 0 0-.243 2.36v.23c0 2.499.466 5.269 2.28 7.113a5.075 5.075 0 0 0 2.911 1.458c1.198.161 1.937-.38 3.038-.661 1.268-.324 2.256.511 2.138 1.6.268.234.528.481.786.733v.001l.002.001c.169.076.33.178.476.3.238.203.439.425.6.664.357.07.699.268.98.632.579.746 1.113 1.5 1.61 2.27.889.944 1.774 1.891 2.647 2.853 1.05 1.156 2.073 2.338 3.102 3.513l.515.587c.555.632 1.109 1.264 1.662 1.898l.166.186c.556.624.983 1.084 1.043 1.982.042.666-.674 1.118-1.268.966-.915-.236-1.34-.955-1.888-1.668l-.829-1.063-.779-1.001c-.387-.499-.778-.996-1.166-1.492-.117.915-1.084 1.652-1.967 1.693l-.206.008c-2.074.069-4.594-.224-6.172-1.687a6.382 6.382 0 0 1-2.681 1.619c-2.472.77-4.999-.593-5.998-2.667a9.206 9.206 0 0 1-6.22.387c-1.208-.354-1.625-1.86-.784-2.781l.038-.041.01-.011a1.418 1.418 0 0 1-.285-.803c-.019-.366.248-.753.193-1.095-.21-1.301-2.332-.337-3.006-.055-.129.054-.25.079-.362.083-1.043.304-2.177-1.066-1.63-2.198 1.222-2.527 2.416-5.074 3.654-7.598a6.284 6.284 0 0 1-.475.142c-2.225.571-4.923-.524-4.41-3.206.119-.63.69-1.061 1.255-1.256 1.103-.38 1.931-.105 2.78-.46.958-.398 1.957-1.127 2.798-1.814a14.641 14.641 0 0 0 2.36-2.445c.275-1.296.75-2.534 1.51-3.599.047-.064.093-.127.142-.189-4.877-1.163-4.239-5.962-6.39-10.214l-.182-.353c-1.461-2.844-2.736-6.052-2-9.291.132-.573.322-1.12.567-1.632-.39.049-.784.093-1.175.138-.898.101-1.81-1.057-1.453-1.909a14.646 14.646 0 0 1 2.9-4.445c-1.508-.04-3.018-.04-4.51-.213-1.41-.163-2.89-.934-2.847-2.56.044-1.549 1.403-2.722 2.663-3.478a15.19 15.19 0 0 1 4.593-4.041 8.886 8.886 0 0 0-1.07-.174l-.183-.016c-1.016-.08-1.928-.36-2.85-.784-.824-.38-.81-1.535-.272-2.116 1.742-1.884 4.351-1.27 6.382-.191a5.446 5.446 0 0 0-.465-.518l-.103-.098c-.998-.93.5-2.42 1.494-1.494.314.292.595.61.846.947l.024-.05c1.314-2.665 3.235-5.05 5.508-6.963l.534-.444c4.1-3.425 5.364-5.049 10.815-4.544-.232-.99-.21-2.105-.157-3.022l.007-.123c.209-3.445 1.479-7.569 4.838-9.116.873-.4 1.861.254 1.629 1.254a16.78 16.78 0 0 1-.609 2.067 23.21 23.21 0 0 1 2.352-2.156c3.393-2.706 7.927-5.032 12.387-4.272 2.45.421 4.373 1.96 6.424 3.245 2.062 1.293 4.365 2.06 6.78 2.337 3.374.389 6.76-.002 10.096-.62 2.292-.999 4.517-2.17 6.689-3.431a37.115 37.115 0 0 0 3.862-2.56Zm-59.902 74.824a4.651 4.651 0 0 1 2.231-.002c1.848.465 3.568 2.012 3.676 3.963.048.881-.661 1.725-1.485 1.951-.934.258-1.737-.199-2.282-.93-.585-.782-.731-1.63-1.447-2.34l-.165-.161c-.61-.582-1.53-1.335-2.375-1.2-.124.019-.217-.15-.09-.218.688-.376 1.14-.86 1.937-1.063Zm9.602-9.187c.326-.266.757.046.603.43l-.012.027c-.386.815.068 1.773.537 2.456.403.589-.359 1.149-.896.896-1.508-.717-1.43-2.837-.232-3.809Zm5.514-24.51c-.028-.199.237-.281.304-.085 1.126 3.27 1.449 6.165 1.266 9.623l-.018.307c-.199 3.33-.782 6.855-2.796 9.59-.467.632-1.422.26-1.268-.534.619-3.181 1.808-6.201 2.271-9.42.484-3.365.701-6.115.241-9.481Zm-10.518 11.884c.165-.873 1.507-1.771 2.185-.894.228.298-.04.664-.315.774-.258.101-.488-.038-.742.012a.667.667 0 0 0-.454.345l-.021.038c-.199.38-.723.097-.653-.275Zm-.549-6.953c.482-.892 1.591-1.46 2.539-.905.313.184.19.719-.19.702l-.225-.01c-.676-.024-1.353-.01-1.921.418-.127.095-.266-.085-.203-.205Zm1.693-24.358c-2.702-1.215-5.389-.118-7.595 1.593-.183.141-.271.307-.29.473 1.472-.574 3.041-.95 4.54-1.26a24.966 24.966 0 0 1 3.702-.494.736.736 0 0 0-.357-.312Z" clip-rule="evenodd"></path><path fill="#000" fill-rule="evenodd" d="M143.152 128.274a8.601 8.601 0 0 1-3.614-2.781 1.671 1.671 0 0 1-.338-1.297c.076-.467.352-.889.728-1.173.377-.284.849-.424 1.305-.353.397.062.791.279 1.104.73l.065.09a5.695 5.695 0 0 0 2.086 1.751 4.7 4.7 0 0 0 2.582.454c1.738-.196 2.935-1.136 4.208-2.413.158-.161.316-.327.474-.496a.746.746 0 0 1 .394-.303.864.864 0 0 1 .97.332c.097.143.153.32.135.524-.117 1.323-.808 2.503-1.79 3.43-1.091 1.03-2.537 1.742-3.898 1.992-1.499.275-3.027.078-4.411-.487Zm5.119-20.408c1.595.971 4.026 3.233 2.31 5.638-2.021 2.12-4.929-.311-6.362-1.411-1.329-.852-2.823 1.34-1.59 2.335 10.358 7.671 14.561-6.308 6.449-7.702-.894-.154-1.225.84-.807 1.14Zm-18.56-8.923c.176-2.189 3.508-2.686 3.84-.52.296 1.94-.053 3.723-.927 5.47-.834 1.668-2.932.89-3.091-.63-.213-2.037.068-2.958.178-4.32Zm25.365-.969c.465-.609 1.136-1.024 1.939-.79 2.511.735 1.771 4.301.889 6.037-.479.942-2.028 1.181-2.728.351-1.14-1.353-1.687-4.056-.236-5.39.039-.068.083-.138.136-.208Zm-22.487-8.608.397-.07c1.227-.212 2.752-.416 3.62.57.461.524.619 1.497 0 1.998-1.088.88-2.292.54-3.596.614a14.3 14.3 0 0 0-3.143.536c-2.272.65-4.123 1.835-6.063 3.137-.254.17-.514-.155-.393-.393 1.12-2.195 3.29-3.997 5.464-5.096 1.161-.587 2.43-1.073 3.714-1.296Zm20.198-.983.304.062c3.304.69 7.596 2.07 9.16 5.317.06.459-.003.557-.054.621l-.017.022c-.043.055-.076.13-.275.193a8.562 8.562 0 0 1-.168-.042c-.717-.188-1.284-.447-1.833-.716l-.596-.293c-.691-.34-1.388-.666-2.127-.907a25.038 25.038 0 0 0-4.844-1.07 1.988 1.988 0 0 1-.972-.37 1.464 1.464 0 0 1-.544-.827c-.116-.467-.082-.82.168-1.242.188-.316.458-.535.767-.661a1.798 1.798 0 0 1 1.031-.087Z" clip-rule="evenodd"></path></svg>